HIERARCHY
ROOT pelvis
{
	OFFSET 0.003123 -0.351407 0.012037
	CHANNELS 6 Xposition Yposition Zposition Zrotation Yrotation Xrotation 
	JOINT left_hip
	{
		OFFSET 0.058189 -0.092763 -0.026001
		CHANNELS 3 Zrotation Yrotation Xrotation
		JOINT left_knee
		{
			OFFSET 0.054695 -0.378753 -0.009396
			CHANNELS 3 Zrotation Yrotation Xrotation
			JOINT left_ankle
			{
				OFFSET -0.043453 -0.403059 -0.031876
				CHANNELS 3 Zrotation Yrotation Xrotation
				JOINT left_foot
				{
					OFFSET 0.047257 -0.057997 0.118216
					CHANNELS 3 Zrotation Yrotation Xrotation
					End Site
					{
						OFFSET 0.000000 0.000000 0.000000
					}
				}
			}
		}
	}
	JOINT right_hip
	{
		OFFSET -0.063267 -0.103908 -0.021250
		CHANNELS 3 Zrotation Yrotation Xrotation
		JOINT right_knee
		{
			OFFSET -0.044210 -0.362380 -0.016824
			CHANNELS 3 Zrotation Yrotation Xrotation
			JOINT right_ankle
			{
				OFFSET 0.015417 -0.410728 -0.020192
				CHANNELS 3 Zrotation Yrotation Xrotation
				JOINT right_foot
				{
					OFFSET -0.038812 -0.058328 0.119049
					CHANNELS 3 Zrotation Yrotation Xrotation
					End Site
					{
						OFFSET 0.000000 0.000000 0.000000
					}
				}
			}
		}
	}
	JOINT spine_1
	{
		OFFSET -0.002763 0.109891 -0.027618
		CHANNELS 3 Zrotation Yrotation Xrotation
		JOINT spine_2
		{
			OFFSET 0.009448 0.131853 -0.005940
			CHANNELS 3 Zrotation Yrotation Xrotation
			JOINT spine_3
			{
				OFFSET -0.011330 0.052235 0.028447
				CHANNELS 3 Zrotation Yrotation Xrotation
				JOINT neck
				{
					OFFSET -0.012164 0.165167 -0.031615
					CHANNELS 3 Zrotation Yrotation Xrotation
					JOINT head
					{
						OFFSET 0.024783 0.160452 0.020737
						CHANNELS 3 Zrotation Yrotation Xrotation
						End Site
						{
							OFFSET 0.000000 0.000000 0.000000
						}
					}
				}
				JOINT left_collar
				{
					OFFSET 0.046364 0.084944 -0.007220
					CHANNELS 3 Zrotation Yrotation Xrotation
					JOINT left_shoulder
					{
						OFFSET 0.119239 0.057728 -0.015461
						CHANNELS 3 Zrotation Yrotation Xrotation
						JOINT left_elbow
						{
							OFFSET 0.254123 -0.072151 -0.042459
							CHANNELS 3 Zrotation Yrotation Xrotation
							JOINT left_wrist
							{
								OFFSET 0.251987 0.023221 -0.002472
								CHANNELS 3 Zrotation Yrotation Xrotation
								JOINT left_index_1
								{
									OFFSET 0.101902 -0.008688 0.019351
									CHANNELS 3 Zrotation Yrotation Xrotation
									JOINT left_index_2
									{
										OFFSET 0.030149 -0.011154 0.001151
										CHANNELS 3 Zrotation Yrotation Xrotation
										JOINT left_index_3
										{
											OFFSET 0.006504 -0.021577 -0.002433
											CHANNELS 3 Zrotation Yrotation Xrotation
											End Site
											{
												OFFSET 0.000000 0.000000 0.000000
											}
										}
									}
								}
								JOINT left_middle_1
								{
									OFFSET 0.109398 -0.006328 -0.003981
									CHANNELS 3 Zrotation Yrotation Xrotation
									JOINT left_middle_2
									{
										OFFSET 0.026472 -0.015218 -0.004641
										CHANNELS 3 Zrotation Yrotation Xrotation
										JOINT left_middle_3
										{
											OFFSET 0.005022 -0.023347 -0.001911
											CHANNELS 3 Zrotation Yrotation Xrotation
											End Site
											{
												OFFSET 0.000000 0.000000 0.000000
											}
										}
									}
								}
								JOINT left_pinky_1
								{
									OFFSET 0.084047 -0.014539 -0.043750
									CHANNELS 3 Zrotation Yrotation Xrotation
									JOINT left_pinky_2
									{
										OFFSET 0.012124 -0.014448 -0.005375
										CHANNELS 3 Zrotation Yrotation Xrotation
										JOINT left_pinky_3
										{
											OFFSET 0.003798 -0.018853 0.000167
											CHANNELS 3 Zrotation Yrotation Xrotation
											End Site
											{
												OFFSET 0.000000 0.000000 0.000000
											}
										}
									}
								}
								JOINT left_ring_1
								{
									OFFSET 0.097444 -0.009268 -0.027345
									CHANNELS 3 Zrotation Yrotation Xrotation
									JOINT left_ring_2
									{
										OFFSET 0.023561 -0.016057 -0.001895
										CHANNELS 3 Zrotation Yrotation Xrotation
										JOINT left_ring_3
										{
											OFFSET 0.004257 -0.023548 0.000814
											CHANNELS 3 Zrotation Yrotation Xrotation
											End Site
											{
												OFFSET 0.000000 0.000000 0.000000
											}
										}
									}
								}
								JOINT left_thumb_1
								{
									OFFSET 0.040636 -0.017977 0.025611
									CHANNELS 3 Zrotation Yrotation Xrotation
									JOINT left_thumb_2
									{
										OFFSET 0.021637 -0.017639 0.011623
										CHANNELS 3 Zrotation Yrotation Xrotation
										JOINT left_thumb_3
										{
											OFFSET 0.024002 -0.008356 0.006548
											CHANNELS 3 Zrotation Yrotation Xrotation
											End Site
											{
												OFFSET 0.000000 0.000000 0.000000
											}
										}
									}
								}
							}
						}
					}
				}
				JOINT right_collar
				{
					OFFSET -0.047695 0.084339 -0.013400
					CHANNELS 3 Zrotation Yrotation Xrotation
					JOINT right_shoulder
					{
						OFFSET -0.102578 0.053524 -0.012669
						CHANNELS 3 Zrotation Yrotation Xrotation
						JOINT right_elbow
						{
							OFFSET -0.271150 -0.036492 -0.026467
							CHANNELS 3 Zrotation Yrotation Xrotation
							JOINT right_wrist
							{
								OFFSET -0.249267 -0.004533 -0.015325
								CHANNELS 3 Zrotation Yrotation Xrotation
								JOINT right_index_1
								{
									OFFSET -0.099881 -0.011783 0.019600
									CHANNELS 3 Zrotation Yrotation Xrotation
									JOINT right_index_2
									{
										OFFSET -0.030148 -0.011154 0.001151
										CHANNELS 3 Zrotation Yrotation Xrotation
										JOINT right_index_3
										{
											OFFSET -0.006505 -0.021577 -0.002432
											CHANNELS 3 Zrotation Yrotation Xrotation
											End Site
											{
												OFFSET 0.000000 0.000000 0.000000
											}
										}
									}
								}
								JOINT right_middle_1
								{
									OFFSET -0.107376 -0.009422 -0.003734
									CHANNELS 3 Zrotation Yrotation Xrotation
									JOINT right_middle_2
									{
										OFFSET -0.026472 -0.015218 -0.004641
										CHANNELS 3 Zrotation Yrotation Xrotation
										JOINT right_middle_3
										{
											OFFSET -0.005022 -0.023347 -0.001911
											CHANNELS 3 Zrotation Yrotation Xrotation
											End Site
											{
												OFFSET 0.000000 0.000000 0.000000
											}
										}
									}
								}
								JOINT right_pinky_1
								{
									OFFSET -0.082027 -0.017634 -0.043503
									CHANNELS 3 Zrotation Yrotation Xrotation
									JOINT right_pinky_2
									{
										OFFSET -0.012123 -0.014448 -0.005374
										CHANNELS 3 Zrotation Yrotation Xrotation
										JOINT right_pinky_3
										{
											OFFSET -0.003798 -0.018852 0.000167
											CHANNELS 3 Zrotation Yrotation Xrotation
											End Site
											{
												OFFSET 0.000000 0.000000 0.000000
											}
										}
									}
								}
								JOINT right_ring_1
								{
									OFFSET -0.095423 -0.012362 -0.027099
									CHANNELS 3 Zrotation Yrotation Xrotation
									JOINT right_ring_2
									{
										OFFSET -0.023561 -0.016057 -0.001895
										CHANNELS 3 Zrotation Yrotation Xrotation
										JOINT right_ring_3
										{
											OFFSET -0.004257 -0.023548 0.000816
											CHANNELS 3 Zrotation Yrotation Xrotation
											End Site
											{
												OFFSET 0.000000 0.000000 0.000000
											}
										}
									}
								}
								JOINT right_thumb_1
								{
									OFFSET -0.038613 -0.021074 0.025861
									CHANNELS 3 Zrotation Yrotation Xrotation
									JOINT right_thumb_2
									{
										OFFSET -0.021636 -0.017639 0.011623
										CHANNELS 3 Zrotation Yrotation Xrotation
										JOINT right_thumb_3
										{
											OFFSET -0.024004 -0.008353 0.006547
											CHANNELS 3 Zrotation Yrotation Xrotation
											End Site
											{
												OFFSET 0.000000 0.000000 0.000000
											}
										}
									}
								}
							}
						}
					}
				}
			}
		}
	}
}
MOTION
Frames: 4
Frame Time: 0.050000
0.011216 0.938361 0.003227 -6.079657 5.789985 -0.148823 8.346049 -0.352595 -0.089961 -5.291136 0.355117 -0.489926 6.521889 13.968042 3.041391 0.000000 0.000000 0.000000 -5.125059 0.809594 -8.392340 4.660301 -0.319748 5.236588 -0.833739 -7.301108 12.100055 0.000000 0.000000 0.000000 5.760103 -0.212086 3.832513 -9.160705 -1.199260 -21.823129 9.281122 -0.110580 30.641491 12.461676 0.193707 -9.544452 0.000000 0.000000 0.000000 2.617597 -7.375437 3.748017 -78.082176 -23.215825 -5.329120 151.180891 -73.531903 -125.266057 2.964337 0.668610 -19.917323 5.734825 -0.530994 -0.345029 25.723876 -1.495188 -9.364680 0.000000 0.000000 0.000000 5.286616 -5.193790 -2.466157 22.063321 -0.458214 -1.083747 0.000000 0.000000 0.000000 14.964526 -10.340524 -13.037903 10.982657 2.067508 11.108775 0.000000 0.000000 0.000000 5.109886 -5.224334 -3.976286 21.658390 1.717803 0.171993 0.000000 0.000000 0.000000 18.703535 7.654271 -5.173911 -18.361145 -8.459059 2.695422 0.000000 0.000000 0.000000 -12.941336 -1.051399 0.122240 79.123958 19.050953 5.140981 -59.665023 76.120000 -46.640326 0.370937 -6.213795 -13.480991 -2.999429 0.710234 -0.286146 -16.457835 1.250872 -5.986614 0.000000 0.000000 0.000000 -2.292193 3.326316 -1.667391 -14.773368 0.265925 -0.460364 0.000000 0.000000 0.000000 -9.269454 7.578231 -9.480188 -7.563487 -1.936977 8.466971 0.000000 0.000000 0.000000 -1.932134 3.314354 -2.510173 -15.440673 -1.076615 -1.551693 0.000000 0.000000 0.000000 -10.696769 -3.175510 -4.202005 12.321834 5.927998 1.153273 0.000000 0.000000 0.000000 
0.011495 0.937555 0.003227 -6.497531 6.398793 -0.791239 9.563458 -0.418163 -0.083413 -6.595630 0.365485 0.479720 6.418709 13.503161 2.505526 0.000000 0.000000 0.000000 -4.327312 0.756136 -7.441476 4.198150 -0.276191 4.964227 -1.351947 -7.925474 11.786755 0.000000 0.000000 0.000000 5.597162 -0.272387 4.414256 -8.888973 -1.260522 -21.850077 9.464543 0.165533 30.936872 12.327162 0.453647 -10.515977 0.000000 0.000000 0.000000 3.329471 -7.840610 4.015679 -78.533333 -24.250699 -5.161015 149.143496 -73.159451 -122.379683 3.016877 0.665472 -19.923520 5.396109 0.192629 -0.082934 25.974205 -1.525232 -9.739403 0.000000 0.000000 0.000000 4.994394 -5.548425 -2.719930 22.673075 -0.487923 -0.880800 0.000000 0.000000 0.000000 14.368762 -9.919928 -12.365477 11.675125 1.713037 9.325535 0.000000 0.000000 0.000000 4.662760 -4.573003 -3.452516 22.217252 1.650861 -1.778314 0.000000 0.000000 0.000000 18.853291 7.901527 -5.033332 -18.479338 -8.530147 2.721949 0.000000 0.000000 0.000000 -12.850654 -1.715018 -0.234656 79.162868 19.830635 6.080092 -69.904487 73.575532 -53.001453 0.676264 -6.324784 -14.120847 -3.225679 0.863415 -0.337270 -16.783380 1.263066 -6.418741 0.000000 0.000000 0.000000 -2.614986 3.758551 -1.895198 -14.858429 0.281552 -0.864775 0.000000 0.000000 0.000000 -9.268787 7.983433 -10.261101 -8.142740 -1.938105 8.641066 0.000000 0.000000 0.000000 -1.856368 3.631185 -2.769179 -16.095700 -1.102142 -1.930864 0.000000 0.000000 0.000000 -11.212548 -3.247282 -4.477915 12.561751 6.230263 1.122632 0.000000 0.000000 0.000000 
0.013461 0.937555 0.003227 -6.652520 6.908861 -1.021807 9.500920 -0.424706 -0.028646 -6.355921 0.331021 0.669744 6.305298 13.113290 2.170497 0.000000 0.000000 0.000000 -3.877832 0.746363 -7.219919 3.491900 -0.203689 5.156249 -1.564369 -8.232483 11.878648 0.000000 0.000000 0.000000 5.480754 -0.207916 3.906907 -8.601885 -1.046115 -20.840451 9.642122 0.408909 30.496213 12.269515 0.531711 -10.744663 0.000000 0.000000 0.000000 2.967636 -8.241392 4.187943 -78.458194 -24.877993 -5.080304 150.570381 -73.833595 -124.768808 3.098959 0.838061 -19.594739 5.303184 -0.728110 -0.406492 25.234026 -1.401624 -7.590874 0.000000 0.000000 0.000000 5.177961 -5.306009 -2.543366 21.853557 -0.444206 -0.758571 0.000000 0.000000 0.000000 14.510273 -9.671096 -11.870799 11.071684 1.730796 9.137767 0.000000 0.000000 0.000000 4.660235 -4.329818 -3.256536 21.876025 1.631870 -1.571413 0.000000 0.000000 0.000000 18.830426 7.442620 -5.414888 -18.900027 -8.668027 2.856241 0.000000 0.000000 0.000000 -12.702769 -1.944055 -0.389677 78.299728 20.295999 6.560166 -77.874699 69.914563 -56.162049 0.734645 -5.863099 -15.232768 -3.594800 0.603978 -0.254168 -17.986517 1.324791 -7.538605 0.000000 0.000000 0.000000 -2.645856 3.827154 -1.938271 -15.853091 0.238827 -0.606417 0.000000 0.000000 0.000000 -9.099717 7.931786 -10.286312 -9.139505 -1.818319 8.420145 0.000000 0.000000 0.000000 -1.915053 3.844916 -2.942930 -16.871074 -1.250784 -1.359670 0.000000 0.000000 0.000000 -12.241777 -3.703639 -4.763282 13.373363 6.541945 1.286434 0.000000 0.000000 0.000000 
0.014042 0.937555 0.005867 -6.916112 6.328882 -1.299236 9.279301 -0.295757 1.711685 -5.543614 0.411488 -1.406714 6.365851 13.275526 2.283660 0.000000 0.000000 0.000000 -3.645594 0.735600 -6.890451 3.596225 -0.208566 5.240757 -1.302720 -7.817127 11.685667 0.000000 0.000000 0.000000 5.384207 -0.216663 3.980174 -8.889240 -1.116670 -21.329241 10.081701 0.585541 30.992830 12.449623 0.525229 -10.854960 0.000000 0.000000 0.000000 2.857723 -7.583887 3.877858 -77.877324 -24.444154 -5.281832 153.535537 -74.180221 -128.670862 3.044187 0.802096 -18.762342 5.141706 0.147820 -0.101189 26.344010 -1.608385 -9.394417 0.000000 0.000000 0.000000 5.025635 -5.537187 -2.702723 22.037961 -0.462457 0.796970 0.000000 0.000000 0.000000 15.023003 -9.880649 -11.958284 11.405155 1.686838 9.220978 0.000000 0.000000 0.000000 4.758466 -4.554905 -3.415158 22.794934 1.661088 -1.240484 0.000000 0.000000 0.000000 18.369198 7.837871 -4.745335 -18.313753 -8.946824 2.613105 0.000000 0.000000 0.000000 -12.636121 -2.075343 -0.438002 76.705744 21.927938 7.201299 -79.890989 69.922577 -57.794030 0.777046 -5.639921 -15.033018 -3.690011 0.991682 -0.391811 -17.832038 1.278168 -6.777642 0.000000 0.000000 0.000000 -3.012654 4.215167 -2.128664 -15.462132 0.182657 0.047013 0.000000 0.000000 0.000000 -9.786330 8.172424 -10.518892 -8.893271 -1.847728 8.499406 0.000000 0.000000 0.000000 -2.209421 3.689355 -2.816709 -17.098797 -1.192334 -2.010095 0.000000 0.000000 0.000000 -12.319031 -3.492874 -4.956253 13.563788 6.079324 1.488795 0.000000 0.000000 0.000000 
